<svg width="381" height="51" viewBox="0 0 381 51" fill="none" xmlns="http://www.w3.org/2000/svg">
<g filter="url(#filter0_d_73_59)">
<rect width="373" height="43" transform="translate(8 8)" fill="white"/>
<rect width="373" height="43" transform="translate(8 8)" fill="url(#paint0_linear_73_59)"/>
<path d="M24.9141 23.041L20.207 36H18.2832L23.7031 21.7812H24.9434L24.9141 23.041ZM28.8594 36L24.1426 23.041L24.1133 21.7812H25.3535L30.793 36H28.8594ZM28.6152 30.7363V32.2793H20.627V30.7363H28.6152ZM34.2305 27.6895V36H32.4238V25.4336H34.1328L34.2305 27.6895ZM33.8008 30.3164L33.0488 30.2871C33.0553 29.5645 33.1628 28.8971 33.3711 28.2852C33.5794 27.6667 33.8724 27.1296 34.25 26.6738C34.6276 26.2181 35.0768 25.8665 35.5977 25.6191C36.125 25.3652 36.7077 25.2383 37.3457 25.2383C37.8665 25.2383 38.3353 25.3099 38.752 25.4531C39.1686 25.5898 39.5234 25.8112 39.8164 26.1172C40.1159 26.4232 40.3438 26.8203 40.5 27.3086C40.6562 27.7904 40.7344 28.3796 40.7344 29.0762V36H38.918V29.0566C38.918 28.5033 38.8366 28.0605 38.6738 27.7285C38.5111 27.39 38.2734 27.1458 37.9609 26.9961C37.6484 26.8398 37.2643 26.7617 36.8086 26.7617C36.3594 26.7617 35.9492 26.8561 35.5781 27.0449C35.2135 27.2337 34.8978 27.4941 34.6309 27.8262C34.3704 28.1582 34.1654 28.5391 34.0156 28.9688C33.8724 29.3919 33.8008 29.8411 33.8008 30.3164ZM50.3242 25.4336H51.9648V35.7754C51.9648 36.7064 51.776 37.5007 51.3984 38.1582C51.0208 38.8158 50.4935 39.3138 49.8164 39.6523C49.1458 39.9974 48.3711 40.1699 47.4922 40.1699C47.1276 40.1699 46.6979 40.1113 46.2031 39.9941C45.7148 39.8835 45.2331 39.6914 44.7578 39.418C44.2891 39.151 43.8952 38.7897 43.5762 38.334L44.5234 37.2598C44.9661 37.7936 45.4284 38.1647 45.9102 38.373C46.3984 38.5814 46.8802 38.6855 47.3555 38.6855C47.9284 38.6855 48.4232 38.5781 48.8398 38.3633C49.2565 38.1484 49.5788 37.8294 49.8066 37.4062C50.041 36.9896 50.1582 36.4753 50.1582 35.8633V27.7578L50.3242 25.4336ZM43.0488 30.834V30.6289C43.0488 29.8216 43.1432 29.0892 43.332 28.4316C43.5273 27.7676 43.804 27.1979 44.1621 26.7227C44.5267 26.2474 44.9661 25.8828 45.4805 25.6289C45.9948 25.3685 46.5742 25.2383 47.2188 25.2383C47.8828 25.2383 48.4622 25.3555 48.957 25.5898C49.4583 25.8177 49.8815 26.153 50.2266 26.5957C50.5781 27.0319 50.8548 27.5592 51.0566 28.1777C51.2585 28.7962 51.3984 29.4961 51.4766 30.2773V31.1758C51.4049 31.9505 51.265 32.6471 51.0566 33.2656C50.8548 33.8841 50.5781 34.4115 50.2266 34.8477C49.8815 35.2839 49.4583 35.6191 48.957 35.8535C48.4557 36.0814 47.8698 36.1953 47.1992 36.1953C46.5677 36.1953 45.9948 36.0618 45.4805 35.7949C44.9727 35.528 44.5365 35.1536 44.1719 34.6719C43.8073 34.1901 43.5273 33.6237 43.332 32.9727C43.1432 32.3151 43.0488 31.6022 43.0488 30.834ZM44.8555 30.6289V30.834C44.8555 31.3613 44.9076 31.8561 45.0117 32.3184C45.1224 32.7806 45.2884 33.1875 45.5098 33.5391C45.7376 33.8906 46.0273 34.1673 46.3789 34.3691C46.7305 34.5645 47.1504 34.6621 47.6387 34.6621C48.2376 34.6621 48.7324 34.5352 49.123 34.2812C49.5137 34.0273 49.8229 33.6921 50.0508 33.2754C50.2852 32.8587 50.4674 32.4062 50.5977 31.918V29.5645C50.526 29.2064 50.4154 28.8613 50.2656 28.5293C50.1224 28.1908 49.9336 27.8913 49.6992 27.6309C49.4714 27.3639 49.1882 27.1523 48.8496 26.9961C48.5111 26.8398 48.1139 26.7617 47.6582 26.7617C47.1634 26.7617 46.737 26.8659 46.3789 27.0742C46.0273 27.276 45.7376 27.556 45.5098 27.9141C45.2884 28.2656 45.1224 28.6758 45.0117 29.1445C44.9076 29.6068 44.8555 30.1016 44.8555 30.6289ZM61.5547 25.4336H63.1953V35.7754C63.1953 36.7064 63.0065 37.5007 62.6289 38.1582C62.2513 38.8158 61.724 39.3138 61.0469 39.6523C60.3763 39.9974 59.6016 40.1699 58.7227 40.1699C58.3581 40.1699 57.9284 40.1113 57.4336 39.9941C56.9453 39.8835 56.4635 39.6914 55.9883 39.418C55.5195 39.151 55.1257 38.7897 54.8066 38.334L55.7539 37.2598C56.1966 37.7936 56.6589 38.1647 57.1406 38.373C57.6289 38.5814 58.1107 38.6855 58.5859 38.6855C59.1589 38.6855 59.6536 38.5781 60.0703 38.3633C60.487 38.1484 60.8092 37.8294 61.0371 37.4062C61.2715 36.9896 61.3887 36.4753 61.3887 35.8633V27.7578L61.5547 25.4336ZM54.2793 30.834V30.6289C54.2793 29.8216 54.3737 29.0892 54.5625 28.4316C54.7578 27.7676 55.0345 27.1979 55.3926 26.7227C55.7572 26.2474 56.1966 25.8828 56.7109 25.6289C57.2253 25.3685 57.8047 25.2383 58.4492 25.2383C59.1133 25.2383 59.6927 25.3555 60.1875 25.5898C60.6888 25.8177 61.112 26.153 61.457 26.5957C61.8086 27.0319 62.0853 27.5592 62.2871 28.1777C62.4889 28.7962 62.6289 29.4961 62.707 30.2773V31.1758C62.6354 31.9505 62.4954 32.6471 62.2871 33.2656C62.0853 33.8841 61.8086 34.4115 61.457 34.8477C61.112 35.2839 60.6888 35.6191 60.1875 35.8535C59.6862 36.0814 59.1003 36.1953 58.4297 36.1953C57.7982 36.1953 57.2253 36.0618 56.7109 35.7949C56.2031 35.528 55.7669 35.1536 55.4023 34.6719C55.0378 34.1901 54.7578 33.6237 54.5625 32.9727C54.3737 32.3151 54.2793 31.6022 54.2793 30.834ZM56.0859 30.6289V30.834C56.0859 31.3613 56.138 31.8561 56.2422 32.3184C56.3529 32.7806 56.5189 33.1875 56.7402 33.5391C56.9681 33.8906 57.2578 34.1673 57.6094 34.3691C57.9609 34.5645 58.3809 34.6621 58.8691 34.6621C59.4681 34.6621 59.9629 34.5352 60.3535 34.2812C60.7441 34.0273 61.0534 33.6921 61.2812 33.2754C61.5156 32.8587 61.6979 32.4062 61.8281 31.918V29.5645C61.7565 29.2064 61.6458 28.8613 61.4961 28.5293C61.3529 28.1908 61.1641 27.8913 60.9297 27.6309C60.7018 27.3639 60.4186 27.1523 60.0801 26.9961C59.7415 26.8398 59.3444 26.7617 58.8887 26.7617C58.3939 26.7617 57.9674 26.8659 57.6094 27.0742C57.2578 27.276 56.9681 27.556 56.7402 27.9141C56.5189 28.2656 56.3529 28.6758 56.2422 29.1445C56.138 29.6068 56.0859 30.1016 56.0859 30.6289ZM65.4609 30.834V30.6094C65.4609 29.8477 65.5716 29.1413 65.793 28.4902C66.0143 27.8327 66.3333 27.263 66.75 26.7812C67.1667 26.293 67.6712 25.9154 68.2637 25.6484C68.8561 25.375 69.5202 25.2383 70.2559 25.2383C70.998 25.2383 71.6654 25.375 72.2578 25.6484C72.8568 25.9154 73.3646 26.293 73.7812 26.7812C74.2044 27.263 74.5267 27.8327 74.748 28.4902C74.9694 29.1413 75.0801 29.8477 75.0801 30.6094V30.834C75.0801 31.5957 74.9694 32.3021 74.748 32.9531C74.5267 33.6042 74.2044 34.1738 73.7812 34.6621C73.3646 35.1439 72.86 35.5215 72.2676 35.7949C71.6816 36.0618 71.0176 36.1953 70.2754 36.1953C69.5332 36.1953 68.8659 36.0618 68.2734 35.7949C67.681 35.5215 67.1732 35.1439 66.75 34.6621C66.3333 34.1738 66.0143 33.6042 65.793 32.9531C65.5716 32.3021 65.4609 31.5957 65.4609 30.834ZM67.2676 30.6094V30.834C67.2676 31.3613 67.3294 31.8594 67.4531 32.3281C67.5768 32.7904 67.7624 33.2005 68.0098 33.5586C68.2637 33.9167 68.5794 34.1999 68.957 34.4082C69.3346 34.61 69.7741 34.7109 70.2754 34.7109C70.7702 34.7109 71.2031 34.61 71.5742 34.4082C71.9518 34.1999 72.2643 33.9167 72.5117 33.5586C72.7591 33.2005 72.9447 32.7904 73.0684 32.3281C73.1986 31.8594 73.2637 31.3613 73.2637 30.834V30.6094C73.2637 30.0885 73.1986 29.597 73.0684 29.1348C72.9447 28.666 72.7559 28.2526 72.502 27.8945C72.2546 27.5299 71.9421 27.2435 71.5645 27.0352C71.1934 26.8268 70.7572 26.7227 70.2559 26.7227C69.7611 26.7227 69.3249 26.8268 68.9473 27.0352C68.5762 27.2435 68.2637 27.5299 68.0098 27.8945C67.7624 28.2526 67.5768 28.666 67.4531 29.1348C67.3294 29.597 67.2676 30.0885 67.2676 30.6094ZM81.7695 25.4336V26.8203H76.0566V25.4336H81.7695ZM77.9902 22.8652H79.7969V33.3828C79.7969 33.7409 79.8522 34.0111 79.9629 34.1934C80.0736 34.3757 80.2168 34.4961 80.3926 34.5547C80.5684 34.6133 80.7572 34.6426 80.959 34.6426C81.1087 34.6426 81.265 34.6296 81.4277 34.6035C81.597 34.571 81.724 34.5449 81.8086 34.5254L81.8184 36C81.6751 36.0456 81.4863 36.0879 81.252 36.127C81.0241 36.1725 80.7474 36.1953 80.4219 36.1953C79.9792 36.1953 79.5723 36.1074 79.2012 35.9316C78.8301 35.7559 78.5339 35.4629 78.3125 35.0527C78.0977 34.6361 77.9902 34.0762 77.9902 33.373V22.8652ZM90.1191 34.1934V28.7539C90.1191 28.3372 90.0345 27.9759 89.8652 27.6699C89.7025 27.3574 89.4551 27.1165 89.123 26.9473C88.791 26.778 88.3809 26.6934 87.8926 26.6934C87.4368 26.6934 87.0365 26.7715 86.6914 26.9277C86.3529 27.084 86.0859 27.2891 85.8906 27.543C85.7018 27.7969 85.6074 28.0703 85.6074 28.3633H83.8008C83.8008 27.9857 83.8984 27.6113 84.0938 27.2402C84.2891 26.8691 84.569 26.5339 84.9336 26.2344C85.3047 25.9284 85.7474 25.6875 86.2617 25.5117C86.7826 25.3294 87.362 25.2383 88 25.2383C88.7682 25.2383 89.4453 25.3685 90.0312 25.6289C90.6237 25.8893 91.0859 26.2832 91.418 26.8105C91.7565 27.3314 91.9258 27.9857 91.9258 28.7734V33.6953C91.9258 34.0469 91.9551 34.4212 92.0137 34.8184C92.0788 35.2155 92.1732 35.5573 92.2969 35.8438V36H90.4121C90.321 35.7917 90.2493 35.515 90.1973 35.1699C90.1452 34.8184 90.1191 34.4928 90.1191 34.1934ZM90.4316 29.5938L90.4512 30.8633H88.625C88.1107 30.8633 87.6517 30.9056 87.248 30.9902C86.8444 31.0684 86.5059 31.1888 86.2324 31.3516C85.959 31.5143 85.7507 31.7194 85.6074 31.9668C85.4642 32.2077 85.3926 32.4909 85.3926 32.8164C85.3926 33.1484 85.4674 33.4512 85.6172 33.7246C85.7669 33.998 85.9915 34.2161 86.291 34.3789C86.597 34.5352 86.9714 34.6133 87.4141 34.6133C87.9674 34.6133 88.4557 34.4961 88.8789 34.2617C89.3021 34.0273 89.6374 33.7409 89.8848 33.4023C90.1387 33.0638 90.2754 32.735 90.2949 32.416L91.0664 33.2852C91.0208 33.5586 90.8971 33.8613 90.6953 34.1934C90.4935 34.5254 90.2233 34.8444 89.8848 35.1504C89.5527 35.4499 89.1556 35.7005 88.6934 35.9023C88.2376 36.0977 87.7233 36.1953 87.1504 36.1953C86.4342 36.1953 85.806 36.0553 85.2656 35.7754C84.7318 35.4954 84.3151 35.1211 84.0156 34.6523C83.7227 34.1771 83.5762 33.6465 83.5762 33.0605C83.5762 32.4941 83.6868 31.9961 83.9082 31.5664C84.1296 31.1302 84.4486 30.7689 84.8652 30.4824C85.2819 30.1895 85.7832 29.9681 86.3691 29.8184C86.9551 29.6686 87.6094 29.5938 88.332 29.5938H90.4316ZM105.969 31.8496V21.7812H107.844V31.8496C107.844 32.7871 107.652 33.5781 107.268 34.2227C106.883 34.8672 106.353 35.3587 105.676 35.6973C105.005 36.0293 104.234 36.1953 103.361 36.1953C102.489 36.1953 101.714 36.0456 101.037 35.7461C100.36 35.4466 99.8294 34.9909 99.4453 34.3789C99.0612 33.7669 98.8691 32.9954 98.8691 32.0645H100.754C100.754 32.6634 100.865 33.1549 101.086 33.5391C101.307 33.9232 101.613 34.2064 102.004 34.3887C102.401 34.571 102.854 34.6621 103.361 34.6621C103.856 34.6621 104.299 34.5579 104.689 34.3496C105.087 34.1348 105.399 33.819 105.627 33.4023C105.855 32.9792 105.969 32.4616 105.969 31.8496ZM112.922 21.7812V36H111.037V21.7812H112.922ZM121.506 21.7812L115.598 28.4121L112.277 31.8594L111.965 29.8477L114.465 27.0938L119.24 21.7812H121.506ZM119.689 36L114.426 29.0664L115.549 27.5723L121.936 36H119.689ZM128.85 21.7812V36H126.994V21.7812H128.85ZM133.42 21.7812V23.3242H122.434V21.7812H133.42ZM144.67 31.2148V32.6992H134.396V31.6348L140.764 21.7812H142.238L140.656 24.6328L136.447 31.2148H144.67ZM142.688 21.7812V36H140.881V21.7812H142.688ZM155.275 32.1523C155.275 33.0182 155.074 33.7539 154.67 34.3594C154.273 34.9583 153.732 35.4141 153.049 35.7266C152.372 36.0391 151.607 36.1953 150.754 36.1953C149.901 36.1953 149.133 36.0391 148.449 35.7266C147.766 35.4141 147.225 34.9583 146.828 34.3594C146.431 33.7539 146.232 33.0182 146.232 32.1523C146.232 31.5859 146.34 31.0684 146.555 30.5996C146.776 30.1243 147.085 29.7109 147.482 29.3594C147.886 29.0078 148.361 28.7376 148.908 28.5488C149.462 28.3535 150.07 28.2559 150.734 28.2559C151.607 28.2559 152.385 28.4251 153.068 28.7637C153.752 29.0957 154.289 29.5547 154.68 30.1406C155.077 30.7266 155.275 31.3971 155.275 32.1523ZM153.459 32.1133C153.459 31.5859 153.345 31.1204 153.117 30.7168C152.889 30.3066 152.57 29.9876 152.16 29.7598C151.75 29.5319 151.275 29.418 150.734 29.418C150.181 29.418 149.702 29.5319 149.299 29.7598C148.902 29.9876 148.592 30.3066 148.371 30.7168C148.15 31.1204 148.039 31.5859 148.039 32.1133C148.039 32.6602 148.146 33.1289 148.361 33.5195C148.583 33.9036 148.895 34.1999 149.299 34.4082C149.709 34.61 150.194 34.7109 150.754 34.7109C151.314 34.7109 151.796 34.61 152.199 34.4082C152.603 34.1999 152.912 33.9036 153.127 33.5195C153.348 33.1289 153.459 32.6602 153.459 32.1133ZM154.943 25.4824C154.943 26.1725 154.761 26.7943 154.396 27.3477C154.032 27.901 153.534 28.3372 152.902 28.6562C152.271 28.9753 151.555 29.1348 150.754 29.1348C149.94 29.1348 149.214 28.9753 148.576 28.6562C147.945 28.3372 147.45 27.901 147.092 27.3477C146.734 26.7943 146.555 26.1725 146.555 25.4824C146.555 24.6556 146.734 23.9525 147.092 23.373C147.456 22.7936 147.954 22.3509 148.586 22.0449C149.217 21.7389 149.937 21.5859 150.744 21.5859C151.558 21.5859 152.281 21.7389 152.912 22.0449C153.544 22.3509 154.038 22.7936 154.396 23.373C154.761 23.9525 154.943 24.6556 154.943 25.4824ZM153.137 25.5117C153.137 25.0365 153.036 24.6165 152.834 24.252C152.632 23.8874 152.352 23.6009 151.994 23.3926C151.636 23.1777 151.219 23.0703 150.744 23.0703C150.269 23.0703 149.852 23.1712 149.494 23.373C149.143 23.5684 148.866 23.8483 148.664 24.2129C148.469 24.5775 148.371 25.0104 148.371 25.5117C148.371 26 148.469 26.4264 148.664 26.791C148.866 27.1556 149.146 27.4388 149.504 27.6406C149.862 27.8424 150.279 27.9434 150.754 27.9434C151.229 27.9434 151.643 27.8424 151.994 27.6406C152.352 27.4388 152.632 27.1556 152.834 26.791C153.036 26.4264 153.137 26 153.137 25.5117Z" fill="black"/>
</g>
<defs>
<filter id="filter0_d_73_59" x="0" y="0" width="381" height="51" filterUnits="userSpaceOnUse" color-interpolation-filters="sRGB">
<feFlood flood-opacity="0" result="BackgroundImageFix"/>
<feColorMatrix in="SourceAlpha" type="matrix" values="0 0 0 0 0 0 0 0 0 0 0 0 0 0 0 0 0 0 127 0" result="hardAlpha"/>
<feOffset dx="-4" dy="-4"/>
<feGaussianBlur stdDeviation="2"/>
<feComposite in2="hardAlpha" operator="out"/>
<feColorMatrix type="matrix" values="0 0 0 0 0 0 0 0 0 0 0 0 0 0 0 0 0 0 0.25 0"/>
<feBlend mode="normal" in2="BackgroundImageFix" result="effect1_dropShadow_73_59"/>
<feBlend mode="normal" in="SourceGraphic" in2="effect1_dropShadow_73_59" result="shape"/>
</filter>
<linearGradient id="paint0_linear_73_59" x1="178" y1="99.5" x2="180" y2="-30" gradientUnits="userSpaceOnUse">
<stop stop-color="#FFA2CB"/>
<stop offset="1" stop-color="#FFA2CB" stop-opacity="0"/>
</linearGradient>
</defs>
</svg>
