<svg width="381" height="51" viewBox="0 0 381 51" fill="none" xmlns="http://www.w3.org/2000/svg">
<g filter="url(#filter0_d_130_51)">
<rect width="373" height="43" transform="translate(8 8)" fill="white"/>
<rect width="373" height="43" transform="translate(8 8)" fill="url(#paint0_linear_130_51)"/>
<path d="M24.7188 29.3496H21.1152L21.0957 27.8359H24.3672C24.9076 27.8359 25.3796 27.7448 25.7832 27.5625C26.1868 27.3802 26.4993 27.1198 26.7207 26.7812C26.9486 26.4362 27.0625 26.026 27.0625 25.5508C27.0625 25.0299 26.9616 24.6068 26.7598 24.2812C26.5645 23.9492 26.2617 23.7083 25.8516 23.5586C25.4479 23.4023 24.9336 23.3242 24.3086 23.3242H21.5352V36H19.6504V21.7812H24.3086C25.0378 21.7812 25.6888 21.8561 26.2617 22.0059C26.8346 22.1491 27.3197 22.377 27.7168 22.6895C28.1204 22.9954 28.4264 23.3861 28.6348 23.8613C28.8431 24.3366 28.9473 24.9062 28.9473 25.5703C28.9473 26.1562 28.7975 26.6868 28.498 27.1621C28.1986 27.6309 27.7819 28.015 27.248 28.3145C26.7207 28.6139 26.1022 28.806 25.3926 28.8906L24.7188 29.3496ZM24.6309 36H20.373L21.4375 34.4668H24.6309C25.2298 34.4668 25.7376 34.3626 26.1543 34.1543C26.5775 33.946 26.8997 33.653 27.1211 33.2754C27.3424 32.8913 27.4531 32.4388 27.4531 31.918C27.4531 31.3906 27.3587 30.9349 27.1699 30.5508C26.9811 30.1667 26.6849 29.8704 26.2812 29.6621C25.8776 29.4538 25.3568 29.3496 24.7188 29.3496H22.0332L22.0527 27.8359H25.7246L26.125 28.3828C26.8086 28.4414 27.388 28.6367 27.8633 28.9688C28.3385 29.2943 28.6999 29.7109 28.9473 30.2188C29.2012 30.7266 29.3281 31.2865 29.3281 31.8984C29.3281 32.7839 29.1328 33.5326 28.7422 34.1445C28.3581 34.75 27.8145 35.2122 27.1113 35.5312C26.4082 35.8438 25.5814 36 24.6309 36ZM36.2227 36.1953C35.487 36.1953 34.8197 36.0716 34.2207 35.8242C33.6283 35.5703 33.1172 35.2155 32.6875 34.7598C32.2643 34.304 31.9388 33.7637 31.7109 33.1387C31.4831 32.5137 31.3691 31.8301 31.3691 31.0879V30.6777C31.3691 29.8184 31.4961 29.0534 31.75 28.3828C32.0039 27.7057 32.349 27.1328 32.7852 26.6641C33.2214 26.1953 33.7161 25.8405 34.2695 25.5996C34.8229 25.3587 35.3958 25.2383 35.9883 25.2383C36.7435 25.2383 37.3945 25.3685 37.9414 25.6289C38.4948 25.8893 38.9473 26.2539 39.2988 26.7227C39.6504 27.1849 39.9108 27.7318 40.0801 28.3633C40.2493 28.9883 40.334 29.6719 40.334 30.4141V31.2246H32.4434V29.75H38.5273V29.6133C38.5013 29.1445 38.4036 28.6888 38.2344 28.2461C38.0716 27.8034 37.8112 27.4388 37.4531 27.1523C37.0951 26.8659 36.6068 26.7227 35.9883 26.7227C35.5781 26.7227 35.2005 26.8105 34.8555 26.9863C34.5104 27.1556 34.2142 27.4095 33.9668 27.748C33.7194 28.0866 33.5273 28.5 33.3906 28.9883C33.2539 29.4766 33.1855 30.0397 33.1855 30.6777V31.0879C33.1855 31.5892 33.2539 32.0612 33.3906 32.5039C33.5339 32.9401 33.7389 33.3242 34.0059 33.6562C34.2793 33.9883 34.6081 34.2487 34.9922 34.4375C35.3828 34.6263 35.8255 34.7207 36.3203 34.7207C36.9583 34.7207 37.4987 34.5905 37.9414 34.3301C38.3841 34.0697 38.7715 33.7214 39.1035 33.2852L40.1973 34.1543C39.9694 34.4993 39.6797 34.8281 39.3281 35.1406C38.9766 35.4531 38.5436 35.707 38.0293 35.9023C37.5215 36.0977 36.9193 36.1953 36.2227 36.1953ZM44.25 27.0938V36H42.4434V25.4336H44.2012L44.25 27.0938ZM47.5508 25.375L47.541 27.0547C47.3913 27.0221 47.248 27.0026 47.1113 26.9961C46.9811 26.9831 46.8314 26.9766 46.6621 26.9766C46.2454 26.9766 45.8776 27.0417 45.5586 27.1719C45.2396 27.3021 44.9694 27.4844 44.748 27.7188C44.5267 27.9531 44.3509 28.2331 44.2207 28.5586C44.097 28.8776 44.0156 29.2292 43.9766 29.6133L43.4688 29.9062C43.4688 29.2682 43.5306 28.6693 43.6543 28.1094C43.7845 27.5495 43.9831 27.0547 44.25 26.625C44.5169 26.1888 44.8555 25.8503 45.2656 25.6094C45.6823 25.362 46.1771 25.2383 46.75 25.2383C46.8802 25.2383 47.0299 25.2546 47.1992 25.2871C47.3685 25.3132 47.4857 25.3424 47.5508 25.375ZM51.1836 25.4336V36H49.3672V25.4336H51.1836ZM49.2305 22.6309C49.2305 22.3379 49.3184 22.0905 49.4941 21.8887C49.6764 21.6868 49.9434 21.5859 50.2949 21.5859C50.64 21.5859 50.9036 21.6868 51.0859 21.8887C51.2747 22.0905 51.3691 22.3379 51.3691 22.6309C51.3691 22.9108 51.2747 23.1517 51.0859 23.3535C50.9036 23.5488 50.64 23.6465 50.2949 23.6465C49.9434 23.6465 49.6764 23.5488 49.4941 23.3535C49.3184 23.1517 49.2305 22.9108 49.2305 22.6309ZM58.5078 25.4336V26.8203H52.7949V25.4336H58.5078ZM54.7285 22.8652H56.5352V33.3828C56.5352 33.7409 56.5905 34.0111 56.7012 34.1934C56.8118 34.3757 56.9551 34.4961 57.1309 34.5547C57.3066 34.6133 57.4954 34.6426 57.6973 34.6426C57.847 34.6426 58.0033 34.6296 58.166 34.6035C58.3353 34.571 58.4622 34.5449 58.5469 34.5254L58.5566 36C58.4134 36.0456 58.2246 36.0879 57.9902 36.127C57.7624 36.1725 57.4857 36.1953 57.1602 36.1953C56.7174 36.1953 56.3105 36.1074 55.9395 35.9316C55.5684 35.7559 55.2721 35.4629 55.0508 35.0527C54.8359 34.6361 54.7285 34.0762 54.7285 33.373V22.8652ZM66.8574 34.1934V28.7539C66.8574 28.3372 66.7728 27.9759 66.6035 27.6699C66.4408 27.3574 66.1934 27.1165 65.8613 26.9473C65.5293 26.778 65.1191 26.6934 64.6309 26.6934C64.1751 26.6934 63.7747 26.7715 63.4297 26.9277C63.0911 27.084 62.8242 27.2891 62.6289 27.543C62.4401 27.7969 62.3457 28.0703 62.3457 28.3633H60.5391C60.5391 27.9857 60.6367 27.6113 60.832 27.2402C61.0273 26.8691 61.3073 26.5339 61.6719 26.2344C62.043 25.9284 62.4857 25.6875 63 25.5117C63.5208 25.3294 64.1003 25.2383 64.7383 25.2383C65.5065 25.2383 66.1836 25.3685 66.7695 25.6289C67.362 25.8893 67.8242 26.2832 68.1562 26.8105C68.4948 27.3314 68.6641 27.9857 68.6641 28.7734V33.6953C68.6641 34.0469 68.6934 34.4212 68.752 34.8184C68.8171 35.2155 68.9115 35.5573 69.0352 35.8438V36H67.1504C67.0592 35.7917 66.9876 35.515 66.9355 35.1699C66.8835 34.8184 66.8574 34.4928 66.8574 34.1934ZM67.1699 29.5938L67.1895 30.8633H65.3633C64.849 30.8633 64.39 30.9056 63.9863 30.9902C63.5827 31.0684 63.2441 31.1888 62.9707 31.3516C62.6973 31.5143 62.4889 31.7194 62.3457 31.9668C62.2025 32.2077 62.1309 32.4909 62.1309 32.8164C62.1309 33.1484 62.2057 33.4512 62.3555 33.7246C62.5052 33.998 62.7298 34.2161 63.0293 34.3789C63.3353 34.5352 63.7096 34.6133 64.1523 34.6133C64.7057 34.6133 65.194 34.4961 65.6172 34.2617C66.0404 34.0273 66.3757 33.7409 66.623 33.4023C66.877 33.0638 67.0137 32.735 67.0332 32.416L67.8047 33.2852C67.7591 33.5586 67.6354 33.8613 67.4336 34.1934C67.2318 34.5254 66.9616 34.8444 66.623 35.1504C66.291 35.4499 65.8939 35.7005 65.4316 35.9023C64.9759 36.0977 64.4616 36.1953 63.8887 36.1953C63.1725 36.1953 62.5443 36.0553 62.0039 35.7754C61.4701 35.4954 61.0534 35.1211 60.7539 34.6523C60.4609 34.1771 60.3145 33.6465 60.3145 33.0605C60.3145 32.4941 60.4251 31.9961 60.6465 31.5664C60.8678 31.1302 61.1868 30.7689 61.6035 30.4824C62.0202 30.1895 62.5215 29.9681 63.1074 29.8184C63.6934 29.6686 64.3477 29.5938 65.0703 29.5938H67.1699ZM81.6035 21.7812V36H79.748V21.7812H81.6035ZM86.1738 21.7812V23.3242H75.1875V21.7812H86.1738ZM91.418 36.1953C90.6823 36.1953 90.015 36.0716 89.416 35.8242C88.8236 35.5703 88.3125 35.2155 87.8828 34.7598C87.4596 34.304 87.1341 33.7637 86.9062 33.1387C86.6784 32.5137 86.5645 31.8301 86.5645 31.0879V30.6777C86.5645 29.8184 86.6914 29.0534 86.9453 28.3828C87.1992 27.7057 87.5443 27.1328 87.9805 26.6641C88.4167 26.1953 88.9115 25.8405 89.4648 25.5996C90.0182 25.3587 90.5911 25.2383 91.1836 25.2383C91.9388 25.2383 92.5898 25.3685 93.1367 25.6289C93.6901 25.8893 94.1426 26.2539 94.4941 26.7227C94.8457 27.1849 95.1061 27.7318 95.2754 28.3633C95.4447 28.9883 95.5293 29.6719 95.5293 30.4141V31.2246H87.6387V29.75H93.7227V29.6133C93.6966 29.1445 93.599 28.6888 93.4297 28.2461C93.2669 27.8034 93.0065 27.4388 92.6484 27.1523C92.2904 26.8659 91.8021 26.7227 91.1836 26.7227C90.7734 26.7227 90.3958 26.8105 90.0508 26.9863C89.7057 27.1556 89.4095 27.4095 89.1621 27.748C88.9147 28.0866 88.7227 28.5 88.5859 28.9883C88.4492 29.4766 88.3809 30.0397 88.3809 30.6777V31.0879C88.3809 31.5892 88.4492 32.0612 88.5859 32.5039C88.7292 32.9401 88.9342 33.3242 89.2012 33.6562C89.4746 33.9883 89.8034 34.2487 90.1875 34.4375C90.5781 34.6263 91.0208 34.7207 91.5156 34.7207C92.1536 34.7207 92.694 34.5905 93.1367 34.3301C93.5794 34.0697 93.9668 33.7214 94.2988 33.2852L95.3926 34.1543C95.1647 34.4993 94.875 34.8281 94.5234 35.1406C94.1719 35.4531 93.7389 35.707 93.2246 35.9023C92.7168 36.0977 92.1146 36.1953 91.418 36.1953ZM99.4453 27.0938V36H97.6387V25.4336H99.3965L99.4453 27.0938ZM102.746 25.375L102.736 27.0547C102.587 27.0221 102.443 27.0026 102.307 26.9961C102.176 26.9831 102.027 26.9766 101.857 26.9766C101.441 26.9766 101.073 27.0417 100.754 27.1719C100.435 27.3021 100.165 27.4844 99.9434 27.7188C99.722 27.9531 99.5462 28.2331 99.416 28.5586C99.2923 28.8776 99.2109 29.2292 99.1719 29.6133L98.6641 29.9062C98.6641 29.2682 98.7259 28.6693 98.8496 28.1094C98.9798 27.5495 99.1784 27.0547 99.4453 26.625C99.7122 26.1888 100.051 25.8503 100.461 25.6094C100.878 25.362 101.372 25.2383 101.945 25.2383C102.076 25.2383 102.225 25.2546 102.395 25.2871C102.564 25.3132 102.681 25.3424 102.746 25.375ZM104.406 21H106.223V33.9492L106.066 36H104.406V21ZM113.361 30.6289V30.834C113.361 31.6022 113.27 32.3151 113.088 32.9727C112.906 33.6237 112.639 34.1901 112.287 34.6719C111.936 35.1536 111.506 35.528 110.998 35.7949C110.49 36.0618 109.908 36.1953 109.25 36.1953C108.579 36.1953 107.99 36.0814 107.482 35.8535C106.981 35.6191 106.558 35.2839 106.213 34.8477C105.868 34.4115 105.591 33.8841 105.383 33.2656C105.181 32.6471 105.041 31.9505 104.963 31.1758V30.2773C105.041 29.4961 105.181 28.7962 105.383 28.1777C105.591 27.5592 105.868 27.0319 106.213 26.5957C106.558 26.153 106.981 25.8177 107.482 25.5898C107.984 25.3555 108.566 25.2383 109.23 25.2383C109.895 25.2383 110.484 25.3685 110.998 25.6289C111.512 25.8828 111.942 26.2474 112.287 26.7227C112.639 27.1979 112.906 27.7676 113.088 28.4316C113.27 29.0892 113.361 29.8216 113.361 30.6289ZM111.545 30.834V30.6289C111.545 30.1016 111.496 29.6068 111.398 29.1445C111.301 28.6758 111.145 28.2656 110.93 27.9141C110.715 27.556 110.432 27.276 110.08 27.0742C109.729 26.8659 109.296 26.7617 108.781 26.7617C108.326 26.7617 107.928 26.8398 107.59 26.9961C107.258 27.1523 106.975 27.3639 106.74 27.6309C106.506 27.8913 106.314 28.1908 106.164 28.5293C106.021 28.8613 105.913 29.2064 105.842 29.5645V31.918C105.946 32.3737 106.115 32.8132 106.35 33.2363C106.59 33.653 106.91 33.9948 107.307 34.2617C107.71 34.5286 108.208 34.6621 108.801 34.6621C109.289 34.6621 109.706 34.5645 110.051 34.3691C110.402 34.1673 110.686 33.8906 110.9 33.5391C111.122 33.1875 111.285 32.7806 111.389 32.3184C111.493 31.8561 111.545 31.3613 111.545 30.834ZM121.877 34.1934V28.7539C121.877 28.3372 121.792 27.9759 121.623 27.6699C121.46 27.3574 121.213 27.1165 120.881 26.9473C120.549 26.778 120.139 26.6934 119.65 26.6934C119.195 26.6934 118.794 26.7715 118.449 26.9277C118.111 27.084 117.844 27.2891 117.648 27.543C117.46 27.7969 117.365 28.0703 117.365 28.3633H115.559C115.559 27.9857 115.656 27.6113 115.852 27.2402C116.047 26.8691 116.327 26.5339 116.691 26.2344C117.062 25.9284 117.505 25.6875 118.02 25.5117C118.54 25.3294 119.12 25.2383 119.758 25.2383C120.526 25.2383 121.203 25.3685 121.789 25.6289C122.382 25.8893 122.844 26.2832 123.176 26.8105C123.514 27.3314 123.684 27.9857 123.684 28.7734V33.6953C123.684 34.0469 123.713 34.4212 123.771 34.8184C123.837 35.2155 123.931 35.5573 124.055 35.8438V36H122.17C122.079 35.7917 122.007 35.515 121.955 35.1699C121.903 34.8184 121.877 34.4928 121.877 34.1934ZM122.189 29.5938L122.209 30.8633H120.383C119.868 30.8633 119.41 30.9056 119.006 30.9902C118.602 31.0684 118.264 31.1888 117.99 31.3516C117.717 31.5143 117.508 31.7194 117.365 31.9668C117.222 32.2077 117.15 32.4909 117.15 32.8164C117.15 33.1484 117.225 33.4512 117.375 33.7246C117.525 33.998 117.749 34.2161 118.049 34.3789C118.355 34.5352 118.729 34.6133 119.172 34.6133C119.725 34.6133 120.214 34.4961 120.637 34.2617C121.06 34.0273 121.395 33.7409 121.643 33.4023C121.896 33.0638 122.033 32.735 122.053 32.416L122.824 33.2852C122.779 33.5586 122.655 33.8613 122.453 34.1934C122.251 34.5254 121.981 34.8444 121.643 35.1504C121.311 35.4499 120.913 35.7005 120.451 35.9023C119.995 36.0977 119.481 36.1953 118.908 36.1953C118.192 36.1953 117.564 36.0553 117.023 35.7754C116.49 35.4954 116.073 35.1211 115.773 34.6523C115.48 34.1771 115.334 33.6465 115.334 33.0605C115.334 32.4941 115.445 31.9961 115.666 31.5664C115.887 31.1302 116.206 30.7689 116.623 30.4824C117.04 30.1895 117.541 29.9681 118.127 29.8184C118.713 29.6686 119.367 29.5938 120.09 29.5938H122.189ZM128.332 27.0938V36H126.525V25.4336H128.283L128.332 27.0938ZM131.633 25.375L131.623 27.0547C131.473 27.0221 131.33 27.0026 131.193 26.9961C131.063 26.9831 130.913 26.9766 130.744 26.9766C130.327 26.9766 129.96 27.0417 129.641 27.1719C129.322 27.3021 129.051 27.4844 128.83 27.7188C128.609 27.9531 128.433 28.2331 128.303 28.5586C128.179 28.8776 128.098 29.2292 128.059 29.6133L127.551 29.9062C127.551 29.2682 127.613 28.6693 127.736 28.1094C127.867 27.5495 128.065 27.0547 128.332 26.625C128.599 26.1888 128.938 25.8503 129.348 25.6094C129.764 25.362 130.259 25.2383 130.832 25.2383C130.962 25.2383 131.112 25.2546 131.281 25.2871C131.451 25.3132 131.568 25.3424 131.633 25.375ZM139.768 33.5586V25.4336H141.584V36H139.855L139.768 33.5586ZM140.109 31.332L140.861 31.3125C140.861 32.0156 140.786 32.6667 140.637 33.2656C140.493 33.8581 140.259 34.3724 139.934 34.8086C139.608 35.2448 139.182 35.5866 138.654 35.834C138.127 36.0749 137.486 36.1953 136.73 36.1953C136.216 36.1953 135.744 36.1204 135.314 35.9707C134.891 35.821 134.527 35.5898 134.221 35.2773C133.915 34.9648 133.677 34.5579 133.508 34.0566C133.345 33.5553 133.264 32.9531 133.264 32.25V25.4336H135.07V32.2695C135.07 32.7448 135.122 33.1387 135.227 33.4512C135.337 33.7572 135.484 34.0013 135.666 34.1836C135.855 34.3594 136.063 34.4831 136.291 34.5547C136.525 34.6263 136.766 34.6621 137.014 34.6621C137.782 34.6621 138.391 34.5156 138.84 34.2227C139.289 33.9232 139.611 33.5228 139.807 33.0215C140.008 32.5137 140.109 31.9505 140.109 31.332Z" fill="black"/>
</g>
<defs>
<filter id="filter0_d_130_51" x="0" y="0" width="381" height="51" filterUnits="userSpaceOnUse" color-interpolation-filters="sRGB">
<feFlood flood-opacity="0" result="BackgroundImageFix"/>
<feColorMatrix in="SourceAlpha" type="matrix" values="0 0 0 0 0 0 0 0 0 0 0 0 0 0 0 0 0 0 127 0" result="hardAlpha"/>
<feOffset dx="-4" dy="-4"/>
<feGaussianBlur stdDeviation="2"/>
<feComposite in2="hardAlpha" operator="out"/>
<feColorMatrix type="matrix" values="0 0 0 0 0 0 0 0 0 0 0 0 0 0 0 0 0 0 0.25 0"/>
<feBlend mode="normal" in2="BackgroundImageFix" result="effect1_dropShadow_130_51"/>
<feBlend mode="normal" in="SourceGraphic" in2="effect1_dropShadow_130_51" result="shape"/>
</filter>
<linearGradient id="paint0_linear_130_51" x1="178" y1="99.5" x2="180" y2="-30" gradientUnits="userSpaceOnUse">
<stop stop-color="#FFA2CB"/>
<stop offset="1" stop-color="#FFA2CB" stop-opacity="0"/>
</linearGradient>
</defs>
</svg>
