<svg width="30" height="9" viewBox="0 0 30 9" fill="none" xmlns="http://www.w3.org/2000/svg">
<path d="M0 4.5C0 2.01472 2.01472 0 4.5 0H25.5C27.9853 0 30 2.01472 30 4.5V4.5C30 6.98528 27.9853 9 25.5 9H4.5C2.01472 9 0 6.98528 0 4.5V4.5Z" fill="#A349A4"/>
<path d="M5.07129 2.73438V7H4.51465V2.73438H5.07129ZM6.44238 2.73438V3.19727H3.14648V2.73438H6.44238ZM7.53516 2.5V7H6.99316V2.5H7.53516ZM7.40625 5.29492L7.18066 5.28613C7.18262 5.06934 7.21484 4.86914 7.27734 4.68555C7.33984 4.5 7.42773 4.33887 7.54102 4.20215C7.6543 4.06543 7.78906 3.95996 7.94531 3.88574C8.10352 3.80957 8.27832 3.77148 8.46973 3.77148C8.62598 3.77148 8.7666 3.79297 8.8916 3.83594C9.0166 3.87695 9.12305 3.94336 9.21094 4.03516C9.30078 4.12695 9.36914 4.24609 9.41602 4.39258C9.46289 4.53711 9.48633 4.71387 9.48633 4.92285V7H8.94141V4.91699C8.94141 4.75098 8.91699 4.61816 8.86816 4.51855C8.81934 4.41699 8.74805 4.34375 8.6543 4.29883C8.56055 4.25195 8.44531 4.22852 8.30859 4.22852C8.17383 4.22852 8.05078 4.25684 7.93945 4.31348C7.83008 4.37012 7.73535 4.44824 7.65527 4.54785C7.57715 4.64746 7.51562 4.76172 7.4707 4.89062C7.42773 5.01758 7.40625 5.15234 7.40625 5.29492ZM11.6133 7.05859C11.3926 7.05859 11.1924 7.02148 11.0127 6.94727C10.835 6.87109 10.6816 6.76465 10.5527 6.62793C10.4258 6.49121 10.3281 6.3291 10.2598 6.1416C10.1914 5.9541 10.1572 5.74902 10.1572 5.52637V5.40332C10.1572 5.14551 10.1953 4.91602 10.2715 4.71484C10.3477 4.51172 10.4512 4.33984 10.582 4.19922C10.7129 4.05859 10.8613 3.95215 11.0273 3.87988C11.1934 3.80762 11.3652 3.77148 11.543 3.77148C11.7695 3.77148 11.9648 3.81055 12.1289 3.88867C12.2949 3.9668 12.4307 4.07617 12.5361 4.2168C12.6416 4.35547 12.7197 4.51953 12.7705 4.70898C12.8213 4.89648 12.8467 5.10156 12.8467 5.32422V5.56738H10.4795V5.125H12.3047V5.08398C12.2969 4.94336 12.2676 4.80664 12.2168 4.67383C12.168 4.54102 12.0898 4.43164 11.9824 4.3457C11.875 4.25977 11.7285 4.2168 11.543 4.2168C11.4199 4.2168 11.3066 4.24316 11.2031 4.2959C11.0996 4.34668 11.0107 4.42285 10.9365 4.52441C10.8623 4.62598 10.8047 4.75 10.7637 4.89648C10.7227 5.04297 10.7021 5.21191 10.7021 5.40332V5.52637C10.7021 5.67676 10.7227 5.81836 10.7637 5.95117C10.8066 6.08203 10.8682 6.19727 10.9482 6.29688C11.0303 6.39648 11.1289 6.47461 11.2441 6.53125C11.3613 6.58789 11.4941 6.61621 11.6426 6.61621C11.834 6.61621 11.9961 6.57715 12.1289 6.49902C12.2617 6.4209 12.3779 6.31641 12.4775 6.18555L12.8057 6.44629C12.7373 6.5498 12.6504 6.64844 12.5449 6.74219C12.4395 6.83594 12.3096 6.91211 12.1553 6.9707C12.0029 7.0293 11.8223 7.05859 11.6133 7.05859ZM15.3486 6.45801V4.82617C15.3486 4.70117 15.3232 4.59277 15.2725 4.50098C15.2236 4.40723 15.1494 4.33496 15.0498 4.28418C14.9502 4.2334 14.8271 4.20801 14.6807 4.20801C14.5439 4.20801 14.4238 4.23145 14.3203 4.27832C14.2188 4.3252 14.1387 4.38672 14.0801 4.46289C14.0234 4.53906 13.9951 4.62109 13.9951 4.70898H13.4531C13.4531 4.5957 13.4824 4.4834 13.541 4.37207C13.5996 4.26074 13.6836 4.16016 13.793 4.07031C13.9043 3.97852 14.0371 3.90625 14.1914 3.85352C14.3477 3.79883 14.5215 3.77148 14.7129 3.77148C14.9434 3.77148 15.1465 3.81055 15.3223 3.88867C15.5 3.9668 15.6387 4.08496 15.7383 4.24316C15.8398 4.39941 15.8906 4.5957 15.8906 4.83203V6.30859C15.8906 6.41406 15.8994 6.52637 15.917 6.64551C15.9365 6.76465 15.9648 6.86719 16.002 6.95312V7H15.4365C15.4092 6.9375 15.3877 6.85449 15.3721 6.75098C15.3564 6.64551 15.3486 6.54785 15.3486 6.45801ZM15.4424 5.07812L15.4482 5.45898H14.9004C14.7461 5.45898 14.6084 5.47168 14.4873 5.49707C14.3662 5.52051 14.2646 5.55664 14.1826 5.60547C14.1006 5.6543 14.0381 5.71582 13.9951 5.79004C13.9521 5.8623 13.9307 5.94727 13.9307 6.04492C13.9307 6.14453 13.9531 6.23535 13.998 6.31738C14.043 6.39941 14.1104 6.46484 14.2002 6.51367C14.292 6.56055 14.4043 6.58398 14.5371 6.58398C14.7031 6.58398 14.8496 6.54883 14.9766 6.47852C15.1035 6.4082 15.2041 6.32227 15.2783 6.2207C15.3545 6.11914 15.3955 6.02051 15.4014 5.9248L15.6328 6.18555C15.6191 6.26758 15.582 6.3584 15.5215 6.45801C15.4609 6.55762 15.3799 6.65332 15.2783 6.74512C15.1787 6.83496 15.0596 6.91016 14.9209 6.9707C14.7842 7.0293 14.6299 7.05859 14.458 7.05859C14.2432 7.05859 14.0547 7.0166 13.8926 6.93262C13.7324 6.84863 13.6074 6.73633 13.5176 6.5957C13.4297 6.45312 13.3857 6.29395 13.3857 6.11816C13.3857 5.94824 13.4189 5.79883 13.4854 5.66992C13.5518 5.53906 13.6475 5.43066 13.7725 5.34473C13.8975 5.25684 14.0479 5.19043 14.2236 5.14551C14.3994 5.10059 14.5957 5.07812 14.8125 5.07812H15.4424ZM18.0703 3.83008V4.24609H16.3564V3.83008H18.0703ZM16.9365 3.05957H17.4785V6.21484C17.4785 6.32227 17.4951 6.40332 17.5283 6.45801C17.5615 6.5127 17.6045 6.54883 17.6572 6.56641C17.71 6.58398 17.7666 6.59277 17.8271 6.59277C17.8721 6.59277 17.9189 6.58887 17.9678 6.58105C18.0186 6.57129 18.0566 6.56348 18.082 6.55762L18.085 7C18.042 7.01367 17.9854 7.02637 17.915 7.03809C17.8467 7.05176 17.7637 7.05859 17.666 7.05859C17.5332 7.05859 17.4111 7.03223 17.2998 6.97949C17.1885 6.92676 17.0996 6.83887 17.0332 6.71582C16.9688 6.59082 16.9365 6.42285 16.9365 6.21191V3.05957ZM19.248 2.5V7H18.7061V2.5H19.248ZM19.1191 5.29492L18.8936 5.28613C18.8955 5.06934 18.9277 4.86914 18.9902 4.68555C19.0527 4.5 19.1406 4.33887 19.2539 4.20215C19.3672 4.06543 19.502 3.95996 19.6582 3.88574C19.8164 3.80957 19.9912 3.77148 20.1826 3.77148C20.3389 3.77148 20.4795 3.79297 20.6045 3.83594C20.7295 3.87695 20.8359 3.94336 20.9238 4.03516C21.0137 4.12695 21.082 4.24609 21.1289 4.39258C21.1758 4.53711 21.1992 4.71387 21.1992 4.92285V7H20.6543V4.91699C20.6543 4.75098 20.6299 4.61816 20.5811 4.51855C20.5322 4.41699 20.4609 4.34375 20.3672 4.29883C20.2734 4.25195 20.1582 4.22852 20.0215 4.22852C19.8867 4.22852 19.7637 4.25684 19.6523 4.31348C19.543 4.37012 19.4482 4.44824 19.3682 4.54785C19.29 4.64746 19.2285 4.76172 19.1836 4.89062C19.1406 5.01758 19.1191 5.15234 19.1191 5.29492ZM23.3262 7.05859C23.1055 7.05859 22.9053 7.02148 22.7256 6.94727C22.5479 6.87109 22.3945 6.76465 22.2656 6.62793C22.1387 6.49121 22.041 6.3291 21.9727 6.1416C21.9043 5.9541 21.8701 5.74902 21.8701 5.52637V5.40332C21.8701 5.14551 21.9082 4.91602 21.9844 4.71484C22.0605 4.51172 22.1641 4.33984 22.2949 4.19922C22.4258 4.05859 22.5742 3.95215 22.7402 3.87988C22.9062 3.80762 23.0781 3.77148 23.2559 3.77148C23.4824 3.77148 23.6777 3.81055 23.8418 3.88867C24.0078 3.9668 24.1436 4.07617 24.249 4.2168C24.3545 4.35547 24.4326 4.51953 24.4834 4.70898C24.5342 4.89648 24.5596 5.10156 24.5596 5.32422V5.56738H22.1924V5.125H24.0176V5.08398C24.0098 4.94336 23.9805 4.80664 23.9297 4.67383C23.8809 4.54102 23.8027 4.43164 23.6953 4.3457C23.5879 4.25977 23.4414 4.2168 23.2559 4.2168C23.1328 4.2168 23.0195 4.24316 22.916 4.2959C22.8125 4.34668 22.7236 4.42285 22.6494 4.52441C22.5752 4.62598 22.5176 4.75 22.4766 4.89648C22.4355 5.04297 22.415 5.21191 22.415 5.40332V5.52637C22.415 5.67676 22.4355 5.81836 22.4766 5.95117C22.5195 6.08203 22.5811 6.19727 22.6611 6.29688C22.7432 6.39648 22.8418 6.47461 22.957 6.53125C23.0742 6.58789 23.207 6.61621 23.3555 6.61621C23.5469 6.61621 23.709 6.57715 23.8418 6.49902C23.9746 6.4209 24.0908 6.31641 24.1904 6.18555L24.5186 6.44629C24.4502 6.5498 24.3633 6.64844 24.2578 6.74219C24.1523 6.83594 24.0225 6.91211 23.8682 6.9707C23.7158 7.0293 23.5352 7.05859 23.3262 7.05859ZM25.7344 4.32812V7H25.1924V3.83008H25.7197L25.7344 4.32812ZM26.7246 3.8125L26.7217 4.31641C26.6768 4.30664 26.6338 4.30078 26.5928 4.29883C26.5537 4.29492 26.5088 4.29297 26.458 4.29297C26.333 4.29297 26.2227 4.3125 26.127 4.35156C26.0312 4.39062 25.9502 4.44531 25.8838 4.51562C25.8174 4.58594 25.7646 4.66992 25.7256 4.76758C25.6885 4.86328 25.6641 4.96875 25.6523 5.08398L25.5 5.17188C25.5 4.98047 25.5186 4.80078 25.5557 4.63281C25.5947 4.46484 25.6543 4.31641 25.7344 4.1875C25.8145 4.05664 25.916 3.95508 26.0391 3.88281C26.1641 3.80859 26.3125 3.77148 26.4844 3.77148C26.5234 3.77148 26.5684 3.77637 26.6191 3.78613C26.6699 3.79395 26.7051 3.80273 26.7246 3.8125Z" fill="white"/>
</svg>
