<svg width="30" height="9" viewBox="0 0 30 9" fill="none" xmlns="http://www.w3.org/2000/svg">
<path d="M0 4.5C0 2.01472 2.01472 0 4.5 0H25.5C27.9853 0 30 2.01472 30 4.5V4.5C30 6.98528 27.9853 9 25.5 9H4.5C2.01472 9 0 6.98528 0 4.5V4.5Z" fill="#2F5597"/>
<path d="M11.2051 6.54004V7H8.94629V6.54004H11.2051ZM9.06055 2.73438V7H8.49512V2.73438H9.06055ZM10.9062 4.56836V5.02832H8.94629V4.56836H10.9062ZM11.1758 2.73438V3.19727H8.94629V2.73438H11.1758ZM12.7109 6.51074L13.5781 3.83008H14.1318L12.9922 7H12.6289L12.7109 6.51074ZM11.9873 3.83008L12.8809 6.52539L12.9424 7H12.5791L11.4307 3.83008H11.9873ZM15.9277 7.05859C15.707 7.05859 15.5068 7.02148 15.3271 6.94727C15.1494 6.87109 14.9961 6.76465 14.8672 6.62793C14.7402 6.49121 14.6426 6.3291 14.5742 6.1416C14.5059 5.9541 14.4717 5.74902 14.4717 5.52637V5.40332C14.4717 5.14551 14.5098 4.91602 14.5859 4.71484C14.6621 4.51172 14.7656 4.33984 14.8965 4.19922C15.0273 4.05859 15.1758 3.95215 15.3418 3.87988C15.5078 3.80762 15.6797 3.77148 15.8574 3.77148C16.084 3.77148 16.2793 3.81055 16.4434 3.88867C16.6094 3.9668 16.7451 4.07617 16.8506 4.2168C16.9561 4.35547 17.0342 4.51953 17.085 4.70898C17.1357 4.89648 17.1611 5.10156 17.1611 5.32422V5.56738H14.7939V5.125H16.6191V5.08398C16.6113 4.94336 16.582 4.80664 16.5312 4.67383C16.4824 4.54102 16.4043 4.43164 16.2969 4.3457C16.1895 4.25977 16.043 4.2168 15.8574 4.2168C15.7344 4.2168 15.6211 4.24316 15.5176 4.2959C15.4141 4.34668 15.3252 4.42285 15.251 4.52441C15.1768 4.62598 15.1191 4.75 15.0781 4.89648C15.0371 5.04297 15.0166 5.21191 15.0166 5.40332V5.52637C15.0166 5.67676 15.0371 5.81836 15.0781 5.95117C15.1211 6.08203 15.1826 6.19727 15.2627 6.29688C15.3447 6.39648 15.4434 6.47461 15.5586 6.53125C15.6758 6.58789 15.8086 6.61621 15.957 6.61621C16.1484 6.61621 16.3105 6.57715 16.4434 6.49902C16.5762 6.4209 16.6924 6.31641 16.792 6.18555L17.1201 6.44629C17.0518 6.5498 16.9648 6.64844 16.8594 6.74219C16.7539 6.83594 16.624 6.91211 16.4697 6.9707C16.3174 7.0293 16.1367 7.05859 15.9277 7.05859ZM18.3359 4.50684V7H17.7939V3.83008H18.3066L18.3359 4.50684ZM18.207 5.29492L17.9814 5.28613C17.9834 5.06934 18.0156 4.86914 18.0781 4.68555C18.1406 4.5 18.2285 4.33887 18.3418 4.20215C18.4551 4.06543 18.5898 3.95996 18.7461 3.88574C18.9043 3.80957 19.0791 3.77148 19.2705 3.77148C19.4268 3.77148 19.5674 3.79297 19.6924 3.83594C19.8174 3.87695 19.9238 3.94336 20.0117 4.03516C20.1016 4.12695 20.1699 4.24609 20.2168 4.39258C20.2637 4.53711 20.2871 4.71387 20.2871 4.92285V7H19.7422V4.91699C19.7422 4.75098 19.7178 4.61816 19.6689 4.51855C19.6201 4.41699 19.5488 4.34375 19.4551 4.29883C19.3613 4.25195 19.2461 4.22852 19.1094 4.22852C18.9746 4.22852 18.8516 4.25684 18.7402 4.31348C18.6309 4.37012 18.5361 4.44824 18.4561 4.54785C18.3779 4.64746 18.3164 4.76172 18.2715 4.89062C18.2285 5.01758 18.207 5.15234 18.207 5.29492ZM22.4375 3.83008V4.24609H20.7236V3.83008H22.4375ZM21.3037 3.05957H21.8457V6.21484C21.8457 6.32227 21.8623 6.40332 21.8955 6.45801C21.9287 6.5127 21.9717 6.54883 22.0244 6.56641C22.0771 6.58398 22.1338 6.59277 22.1943 6.59277C22.2393 6.59277 22.2861 6.58887 22.335 6.58105C22.3857 6.57129 22.4238 6.56348 22.4492 6.55762L22.4521 7C22.4092 7.01367 22.3525 7.02637 22.2822 7.03809C22.2139 7.05176 22.1309 7.05859 22.0332 7.05859C21.9004 7.05859 21.7783 7.03223 21.667 6.97949C21.5557 6.92676 21.4668 6.83887 21.4004 6.71582C21.3359 6.59082 21.3037 6.42285 21.3037 6.21191V3.05957Z" fill="white"/>
</svg>
