<svg width="30" height="9" viewBox="0 0 30 9" fill="none" xmlns="http://www.w3.org/2000/svg">
<path d="M0 4.5C0 2.01472 2.01472 0 4.5 0H25.5C27.9853 0 30 2.01472 30 4.5V4.5C30 6.98528 27.9853 9 25.5 9H4.5C2.01472 9 0 6.98528 0 4.5V4.5Z" fill="#4BD823"/>
<path d="M6.01562 5.00488H4.93457L4.92871 4.55078H5.91016C6.07227 4.55078 6.21387 4.52344 6.33496 4.46875C6.45605 4.41406 6.5498 4.33594 6.61621 4.23438C6.68457 4.13086 6.71875 4.00781 6.71875 3.86523C6.71875 3.70898 6.68848 3.58203 6.62793 3.48438C6.56934 3.38477 6.47852 3.3125 6.35547 3.26758C6.23438 3.2207 6.08008 3.19727 5.89258 3.19727H5.06055V7H4.49512V2.73438H5.89258C6.11133 2.73438 6.30664 2.75684 6.47852 2.80176C6.65039 2.84473 6.7959 2.91309 6.91504 3.00684C7.03613 3.09863 7.12793 3.21582 7.19043 3.3584C7.25293 3.50098 7.28418 3.67188 7.28418 3.87109C7.28418 4.04688 7.23926 4.20605 7.14941 4.34863C7.05957 4.48926 6.93457 4.60449 6.77441 4.69434C6.61621 4.78418 6.43066 4.8418 6.21777 4.86719L6.01562 5.00488ZM5.98926 7H4.71191L5.03125 6.54004H5.98926C6.16895 6.54004 6.32129 6.50879 6.44629 6.44629C6.57324 6.38379 6.66992 6.2959 6.73633 6.18262C6.80273 6.06738 6.83594 5.93164 6.83594 5.77539C6.83594 5.61719 6.80762 5.48047 6.75098 5.36523C6.69434 5.25 6.60547 5.16113 6.48438 5.09863C6.36328 5.03613 6.20703 5.00488 6.01562 5.00488H5.20996L5.21582 4.55078H6.31738L6.4375 4.71484C6.64258 4.73242 6.81641 4.79102 6.95898 4.89062C7.10156 4.98828 7.20996 5.11328 7.28418 5.26562C7.36035 5.41797 7.39844 5.58594 7.39844 5.76953C7.39844 6.03516 7.33984 6.25977 7.22266 6.44336C7.10742 6.625 6.94434 6.76367 6.7334 6.85938C6.52246 6.95312 6.27441 7 5.98926 7ZM8.74023 3.83008V7H8.19531V3.83008H8.74023ZM8.1543 2.98926C8.1543 2.90137 8.18066 2.82715 8.2334 2.7666C8.28809 2.70605 8.36816 2.67578 8.47363 2.67578C8.57715 2.67578 8.65625 2.70605 8.71094 2.7666C8.76758 2.82715 8.7959 2.90137 8.7959 2.98926C8.7959 3.07324 8.76758 3.14551 8.71094 3.20605C8.65625 3.26465 8.57715 3.29395 8.47363 3.29395C8.36816 3.29395 8.28809 3.26465 8.2334 3.20605C8.18066 3.14551 8.1543 3.07324 8.1543 2.98926ZM10.1523 4.32812V7H9.61035V3.83008H10.1377L10.1523 4.32812ZM11.1426 3.8125L11.1396 4.31641C11.0947 4.30664 11.0518 4.30078 11.0107 4.29883C10.9717 4.29492 10.9268 4.29297 10.876 4.29297C10.751 4.29297 10.6406 4.3125 10.5449 4.35156C10.4492 4.39062 10.3682 4.44531 10.3018 4.51562C10.2354 4.58594 10.1826 4.66992 10.1436 4.76758C10.1064 4.86328 10.082 4.96875 10.0703 5.08398L9.91797 5.17188C9.91797 4.98047 9.93652 4.80078 9.97363 4.63281C10.0127 4.46484 10.0723 4.31641 10.1523 4.1875C10.2324 4.05664 10.334 3.95508 10.457 3.88281C10.582 3.80859 10.7305 3.77148 10.9023 3.77148C10.9414 3.77148 10.9863 3.77637 11.0371 3.78613C11.0879 3.79395 11.123 3.80273 11.1426 3.8125ZM13.1172 3.83008V4.24609H11.4033V3.83008H13.1172ZM11.9834 3.05957H12.5254V6.21484C12.5254 6.32227 12.542 6.40332 12.5752 6.45801C12.6084 6.5127 12.6514 6.54883 12.7041 6.56641C12.7568 6.58398 12.8135 6.59277 12.874 6.59277C12.9189 6.59277 12.9658 6.58887 13.0146 6.58105C13.0654 6.57129 13.1035 6.56348 13.1289 6.55762L13.1318 7C13.0889 7.01367 13.0322 7.02637 12.9619 7.03809C12.8936 7.05176 12.8105 7.05859 12.7129 7.05859C12.5801 7.05859 12.458 7.03223 12.3467 6.97949C12.2354 6.92676 12.1465 6.83887 12.0801 6.71582C12.0156 6.59082 11.9834 6.42285 11.9834 6.21191V3.05957ZM14.2949 2.5V7H13.7529V2.5H14.2949ZM14.166 5.29492L13.9404 5.28613C13.9424 5.06934 13.9746 4.86914 14.0371 4.68555C14.0996 4.5 14.1875 4.33887 14.3008 4.20215C14.4141 4.06543 14.5488 3.95996 14.7051 3.88574C14.8633 3.80957 15.0381 3.77148 15.2295 3.77148C15.3857 3.77148 15.5264 3.79297 15.6514 3.83594C15.7764 3.87695 15.8828 3.94336 15.9707 4.03516C16.0605 4.12695 16.1289 4.24609 16.1758 4.39258C16.2227 4.53711 16.2461 4.71387 16.2461 4.92285V7H15.7012V4.91699C15.7012 4.75098 15.6768 4.61816 15.6279 4.51855C15.5791 4.41699 15.5078 4.34375 15.4141 4.29883C15.3203 4.25195 15.2051 4.22852 15.0684 4.22852C14.9336 4.22852 14.8105 4.25684 14.6992 4.31348C14.5898 4.37012 14.4951 4.44824 14.415 4.54785C14.3369 4.64746 14.2754 4.76172 14.2305 4.89062C14.1875 5.01758 14.166 5.15234 14.166 5.29492ZM19.0557 6.38477V2.5H19.6006V7H19.1025L19.0557 6.38477ZM16.9229 5.4502V5.38867C16.9229 5.14648 16.9521 4.92676 17.0107 4.72949C17.0713 4.53027 17.1562 4.35938 17.2656 4.2168C17.377 4.07422 17.5088 3.96484 17.6611 3.88867C17.8154 3.81055 17.9873 3.77148 18.1768 3.77148C18.376 3.77148 18.5498 3.80664 18.6982 3.87695C18.8486 3.94531 18.9756 4.0459 19.0791 4.17871C19.1846 4.30957 19.2676 4.46777 19.3281 4.65332C19.3887 4.83887 19.4307 5.04883 19.4541 5.2832V5.55273C19.4326 5.78516 19.3906 5.99414 19.3281 6.17969C19.2676 6.36523 19.1846 6.52344 19.0791 6.6543C18.9756 6.78516 18.8486 6.88574 18.6982 6.95605C18.5479 7.02441 18.3721 7.05859 18.1709 7.05859C17.9854 7.05859 17.8154 7.01855 17.6611 6.93848C17.5088 6.8584 17.377 6.74609 17.2656 6.60156C17.1562 6.45703 17.0713 6.28711 17.0107 6.0918C16.9521 5.89453 16.9229 5.68066 16.9229 5.4502ZM17.4678 5.38867V5.4502C17.4678 5.6084 17.4834 5.75684 17.5146 5.89551C17.5479 6.03418 17.5986 6.15625 17.667 6.26172C17.7354 6.36719 17.8223 6.4502 17.9277 6.51074C18.0332 6.56934 18.1592 6.59863 18.3057 6.59863C18.4854 6.59863 18.6328 6.56055 18.748 6.48438C18.8652 6.4082 18.959 6.30762 19.0293 6.18262C19.0996 6.05762 19.1543 5.92188 19.1934 5.77539V5.06934C19.1699 4.96191 19.1357 4.8584 19.0908 4.75879C19.0479 4.65723 18.9912 4.56738 18.9209 4.48926C18.8525 4.40918 18.7676 4.3457 18.666 4.29883C18.5664 4.25195 18.4482 4.22852 18.3115 4.22852C18.1631 4.22852 18.0352 4.25977 17.9277 4.32227C17.8223 4.38281 17.7354 4.4668 17.667 4.57422C17.5986 4.67969 17.5479 4.80273 17.5146 4.94336C17.4834 5.08203 17.4678 5.23047 17.4678 5.38867ZM22.3135 6.45801V4.82617C22.3135 4.70117 22.2881 4.59277 22.2373 4.50098C22.1885 4.40723 22.1143 4.33496 22.0146 4.28418C21.915 4.2334 21.792 4.20801 21.6455 4.20801C21.5088 4.20801 21.3887 4.23145 21.2852 4.27832C21.1836 4.3252 21.1035 4.38672 21.0449 4.46289C20.9883 4.53906 20.96 4.62109 20.96 4.70898H20.418C20.418 4.5957 20.4473 4.4834 20.5059 4.37207C20.5645 4.26074 20.6484 4.16016 20.7578 4.07031C20.8691 3.97852 21.002 3.90625 21.1562 3.85352C21.3125 3.79883 21.4863 3.77148 21.6777 3.77148C21.9082 3.77148 22.1113 3.81055 22.2871 3.88867C22.4648 3.9668 22.6035 4.08496 22.7031 4.24316C22.8047 4.39941 22.8555 4.5957 22.8555 4.83203V6.30859C22.8555 6.41406 22.8643 6.52637 22.8818 6.64551C22.9014 6.76465 22.9297 6.86719 22.9668 6.95312V7H22.4014C22.374 6.9375 22.3525 6.85449 22.3369 6.75098C22.3213 6.64551 22.3135 6.54785 22.3135 6.45801ZM22.4072 5.07812L22.4131 5.45898H21.8652C21.7109 5.45898 21.5732 5.47168 21.4521 5.49707C21.3311 5.52051 21.2295 5.55664 21.1475 5.60547C21.0654 5.6543 21.0029 5.71582 20.96 5.79004C20.917 5.8623 20.8955 5.94727 20.8955 6.04492C20.8955 6.14453 20.918 6.23535 20.9629 6.31738C21.0078 6.39941 21.0752 6.46484 21.165 6.51367C21.2568 6.56055 21.3691 6.58398 21.502 6.58398C21.668 6.58398 21.8145 6.54883 21.9414 6.47852C22.0684 6.4082 22.1689 6.32227 22.2432 6.2207C22.3193 6.11914 22.3604 6.02051 22.3662 5.9248L22.5977 6.18555C22.584 6.26758 22.5469 6.3584 22.4863 6.45801C22.4258 6.55762 22.3447 6.65332 22.2432 6.74512C22.1436 6.83496 22.0244 6.91016 21.8857 6.9707C21.749 7.0293 21.5947 7.05859 21.4229 7.05859C21.208 7.05859 21.0195 7.0166 20.8574 6.93262C20.6973 6.84863 20.5723 6.73633 20.4824 6.5957C20.3945 6.45312 20.3506 6.29395 20.3506 6.11816C20.3506 5.94824 20.3838 5.79883 20.4502 5.66992C20.5166 5.53906 20.6123 5.43066 20.7373 5.34473C20.8623 5.25684 21.0127 5.19043 21.1885 5.14551C21.3643 5.10059 21.5605 5.07812 21.7773 5.07812H22.4072ZM24.5518 6.67188L25.4336 3.83008H26.0137L24.7422 7.48926C24.7129 7.56738 24.6738 7.65137 24.625 7.74121C24.5781 7.83301 24.5176 7.91992 24.4434 8.00195C24.3691 8.08398 24.2793 8.15039 24.1738 8.20117C24.0703 8.25391 23.9463 8.28027 23.8018 8.28027C23.7588 8.28027 23.7041 8.27441 23.6377 8.2627C23.5713 8.25098 23.5244 8.24121 23.4971 8.2334L23.4941 7.79395C23.5098 7.7959 23.5342 7.79785 23.5674 7.7998C23.6025 7.80371 23.627 7.80566 23.6406 7.80566C23.7637 7.80566 23.8682 7.78906 23.9541 7.75586C24.04 7.72461 24.1123 7.6709 24.1709 7.59473C24.2314 7.52051 24.2832 7.41797 24.3262 7.28711L24.5518 6.67188ZM23.9043 3.83008L24.7275 6.29102L24.8682 6.8623L24.4785 7.06152L23.3125 3.83008H23.9043Z" fill="white"/>
</svg>
