<svg width="30" height="9" viewBox="0 0 30 9" fill="none" xmlns="http://www.w3.org/2000/svg">
<path d="M0 4.5C0 2.01472 2.01472 0 4.5 0H25.5C27.9853 0 30 2.01472 30 4.5V4.5C30 6.98528 27.9853 9 25.5 9H4.5C2.01472 9 0 6.98528 0 4.5V4.5Z" fill="black"/>
<path d="M11.7793 4.73242V5.00195C11.7793 5.32227 11.7393 5.60938 11.6592 5.86328C11.5791 6.11719 11.4639 6.33301 11.3135 6.51074C11.1631 6.68848 10.9824 6.82422 10.7715 6.91797C10.5625 7.01172 10.3281 7.05859 10.0684 7.05859C9.81641 7.05859 9.58496 7.01172 9.37402 6.91797C9.16504 6.82422 8.9834 6.68848 8.8291 6.51074C8.67676 6.33301 8.55859 6.11719 8.47461 5.86328C8.39062 5.60938 8.34863 5.32227 8.34863 5.00195V4.73242C8.34863 4.41211 8.38965 4.12598 8.47168 3.87402C8.55566 3.62012 8.67383 3.4043 8.82617 3.22656C8.97852 3.04688 9.15918 2.91016 9.36816 2.81641C9.5791 2.72266 9.81055 2.67578 10.0625 2.67578C10.3223 2.67578 10.5566 2.72266 10.7656 2.81641C10.9766 2.91016 11.1572 3.04688 11.3076 3.22656C11.46 3.4043 11.5762 3.62012 11.6562 3.87402C11.7383 4.12598 11.7793 4.41211 11.7793 4.73242ZM11.2197 5.00195V4.72656C11.2197 4.47266 11.1934 4.24805 11.1406 4.05273C11.0898 3.85742 11.0146 3.69336 10.915 3.56055C10.8154 3.42773 10.6934 3.32715 10.5488 3.25879C10.4062 3.19043 10.2441 3.15625 10.0625 3.15625C9.88672 3.15625 9.72754 3.19043 9.58496 3.25879C9.44434 3.32715 9.32324 3.42773 9.22168 3.56055C9.12207 3.69336 9.04492 3.85742 8.99023 4.05273C8.93555 4.24805 8.9082 4.47266 8.9082 4.72656V5.00195C8.9082 5.25781 8.93555 5.48438 8.99023 5.68164C9.04492 5.87695 9.12305 6.04199 9.22461 6.17676C9.32812 6.30957 9.4502 6.41016 9.59082 6.47852C9.7334 6.54688 9.89258 6.58105 10.0684 6.58105C10.252 6.58105 10.415 6.54688 10.5576 6.47852C10.7002 6.41016 10.8203 6.30957 10.918 6.17676C11.0176 6.04199 11.0928 5.87695 11.1436 5.68164C11.1943 5.48438 11.2197 5.25781 11.2197 5.00195ZM13.8711 3.83008V4.24609H12.1572V3.83008H13.8711ZM12.7373 3.05957H13.2793V6.21484C13.2793 6.32227 13.2959 6.40332 13.3291 6.45801C13.3623 6.5127 13.4053 6.54883 13.458 6.56641C13.5107 6.58398 13.5674 6.59277 13.6279 6.59277C13.6729 6.59277 13.7197 6.58887 13.7686 6.58105C13.8193 6.57129 13.8574 6.56348 13.8828 6.55762L13.8857 7C13.8428 7.01367 13.7861 7.02637 13.7158 7.03809C13.6475 7.05176 13.5645 7.05859 13.4668 7.05859C13.334 7.05859 13.2119 7.03223 13.1006 6.97949C12.9893 6.92676 12.9004 6.83887 12.834 6.71582C12.7695 6.59082 12.7373 6.42285 12.7373 6.21191V3.05957ZM15.0488 2.5V7H14.5068V2.5H15.0488ZM14.9199 5.29492L14.6943 5.28613C14.6963 5.06934 14.7285 4.86914 14.791 4.68555C14.8535 4.5 14.9414 4.33887 15.0547 4.20215C15.168 4.06543 15.3027 3.95996 15.459 3.88574C15.6172 3.80957 15.792 3.77148 15.9834 3.77148C16.1396 3.77148 16.2803 3.79297 16.4053 3.83594C16.5303 3.87695 16.6367 3.94336 16.7246 4.03516C16.8145 4.12695 16.8828 4.24609 16.9297 4.39258C16.9766 4.53711 17 4.71387 17 4.92285V7H16.4551V4.91699C16.4551 4.75098 16.4307 4.61816 16.3818 4.51855C16.333 4.41699 16.2617 4.34375 16.168 4.29883C16.0742 4.25195 15.959 4.22852 15.8223 4.22852C15.6875 4.22852 15.5645 4.25684 15.4531 4.31348C15.3438 4.37012 15.249 4.44824 15.1689 4.54785C15.0908 4.64746 15.0293 4.76172 14.9844 4.89062C14.9414 5.01758 14.9199 5.15234 14.9199 5.29492ZM19.127 7.05859C18.9062 7.05859 18.7061 7.02148 18.5264 6.94727C18.3486 6.87109 18.1953 6.76465 18.0664 6.62793C17.9395 6.49121 17.8418 6.3291 17.7734 6.1416C17.7051 5.9541 17.6709 5.74902 17.6709 5.52637V5.40332C17.6709 5.14551 17.709 4.91602 17.7852 4.71484C17.8613 4.51172 17.9648 4.33984 18.0957 4.19922C18.2266 4.05859 18.375 3.95215 18.541 3.87988C18.707 3.80762 18.8789 3.77148 19.0566 3.77148C19.2832 3.77148 19.4785 3.81055 19.6426 3.88867C19.8086 3.9668 19.9443 4.07617 20.0498 4.2168C20.1553 4.35547 20.2334 4.51953 20.2842 4.70898C20.335 4.89648 20.3604 5.10156 20.3604 5.32422V5.56738H17.9932V5.125H19.8184V5.08398C19.8105 4.94336 19.7812 4.80664 19.7305 4.67383C19.6816 4.54102 19.6035 4.43164 19.4961 4.3457C19.3887 4.25977 19.2422 4.2168 19.0566 4.2168C18.9336 4.2168 18.8203 4.24316 18.7168 4.2959C18.6133 4.34668 18.5244 4.42285 18.4502 4.52441C18.376 4.62598 18.3184 4.75 18.2773 4.89648C18.2363 5.04297 18.2158 5.21191 18.2158 5.40332V5.52637C18.2158 5.67676 18.2363 5.81836 18.2773 5.95117C18.3203 6.08203 18.3818 6.19727 18.4619 6.29688C18.5439 6.39648 18.6426 6.47461 18.7578 6.53125C18.875 6.58789 19.0078 6.61621 19.1562 6.61621C19.3477 6.61621 19.5098 6.57715 19.6426 6.49902C19.7754 6.4209 19.8916 6.31641 19.9912 6.18555L20.3193 6.44629C20.251 6.5498 20.1641 6.64844 20.0586 6.74219C19.9531 6.83594 19.8232 6.91211 19.6689 6.9707C19.5166 7.0293 19.3359 7.05859 19.127 7.05859ZM21.5352 4.32812V7H20.9932V3.83008H21.5205L21.5352 4.32812ZM22.5254 3.8125L22.5225 4.31641C22.4775 4.30664 22.4346 4.30078 22.3936 4.29883C22.3545 4.29492 22.3096 4.29297 22.2588 4.29297C22.1338 4.29297 22.0234 4.3125 21.9277 4.35156C21.832 4.39062 21.751 4.44531 21.6846 4.51562C21.6182 4.58594 21.5654 4.66992 21.5264 4.76758C21.4893 4.86328 21.4648 4.96875 21.4531 5.08398L21.3008 5.17188C21.3008 4.98047 21.3193 4.80078 21.3564 4.63281C21.3955 4.46484 21.4551 4.31641 21.5352 4.1875C21.6152 4.05664 21.7168 3.95508 21.8398 3.88281C21.9648 3.80859 22.1133 3.77148 22.2852 3.77148C22.3242 3.77148 22.3691 3.77637 22.4199 3.78613C22.4707 3.79395 22.5059 3.80273 22.5254 3.8125Z" fill="white"/>
</svg>
